# AST/ASF file generated using VICON BodyLanguage
# -----------------------------------------------
:version 1.10
:name VICON
:units
  mass 1.0
  length 0.45
  angle deg
:documentation
   .ast/.asf automatically generated from VICON data using
   VICON BodyBuilder and BodyLanguage model FoxedUp or BRILLIANT.MOD
:root
   order TX TY TZ RX RY RZ
   axis XYZ
   position 0 0 0  
   orientation 0 0 0 
:bonedata
  begin
     id 1 
     name lhipjoint
     direction 0.577973 -0.728611 0.367523 
     length 2.48544 
     axis 0 0 0  XYZ
  end
  begin
     id 2 
     name lfemur
     direction 0.34202 -0.939693 0  
     length 7.1921  
     axis 0 0 20  XYZ
    dof rx ry rz
    limits (-160.0 20.0)
           (-70.0 70.0)
           (-60.0 70.0)
  end
  begin
     id 3 
     name ltibia
     direction 0.34202 -0.939693 0   
     length 7.71059   
     axis 0 0 20   XYZ
    dof rx
    limits (-10.0 170.0)
  end
  begin
     id 4 
     name lfoot
     direction 0.089538 -0.246004 0.965124   
     length 2.19909   
     axis -90 7.62852e-016 20   XYZ
    dof rx rz
    limits (-45.0 90.0)
           (-70.0 20.0)
  end
  begin
     id 5 
     name ltoes
     direction 1.53544e-011 -4.21829e-011 1   
     length 1.10116   
     axis -90 7.62852e-016 20   XYZ
    dof rx
    limits (-90.0 20.0)
  end
  begin
     id 6 
     name rhipjoint
     direction -0.554414 -0.743062 0.374812   
     length 2.4371  
     axis 0 0 0  XYZ 
  end
  begin
     id 7 
     name rfemur
     direction -0.34202 -0.939693 0   
     length 7.47254   
     axis 0 0 -20   XYZ
    dof rx ry rz
    limits (-160.0 20.0)
           (-70.0 70.0)
           (-70.0 60.0)
  end
  begin
     id 8 
     name rtibia
     direction -0.34202 -0.939693 0   
     length 7.65855   
     axis 0 0 -20   XYZ
    dof rx
    limits (-10.0 170.0)
 end
 begin
     id 9 
     name rfoot
     direction -0.133779 -0.367555 0.92033   
     length 2.43006  
     axis -90 -7.62852e-016 -20   XYZ
    dof rx rz
    limits (-45.0 90.0)
           (-20.0 70.0)
  end
  begin
     id 10 
     name rtoes
     direction -1.53563e-011 -4.21889e-011 1   
     length 1.19625   
     axis -90 -7.62852e-016 -20   XYZ
    dof rx
    limits (-90.0 20.0)
  end
  begin
     id 11 
     name lowerback
     direction 0.0249066 0.998043 -0.0573585   
     length 2.08485   
     axis 0 0 0   XYZ
    dof rx ry rz
    limits (-20.0 45.0)
           (-30.0 30.0)
           (-30.0 30.0)
  end
  begin
     id 12 
     name upperback
     direction 0.0237884 0.999673 0.00943178   
     length 2.08515   
     axis 0 0 0   XYZ
    dof rx ry rz
    limits (-20.0 45.0)
           (-30.0 30.0)
           (-30.0 30.0)
  end
  begin
     id 13 
     name thorax
     direction 0.0106671 0.999301 0.0358174   
     length 2.09037   
     axis 0 0 0   XYZ
    dof rx ry rz
    limits (-20.0 45.0)
           (-30.0 30.0)
           (-30.0 30.0)
  end
  begin
     id 14 
     name lowerneck
     direction -0.0580016 0.987052 0.149546   
     length 1.84454   
     axis 0 0 0   XYZ
    dof rx ry rz
    limits (-20.0 45.0)
           (-30.0 30.0)
           (-30.0 30.0)
  end
  begin
     id 15 
     name upperneck
     direction 0.079456 0.981963 -0.171567   
     length 1.88141   
     axis 0 0 0   XYZ
    dof rx ry rz
    limits (-20.0 45.0)
           (-30.0 30.0)
           (-30.0 30.0)
  end
  begin
     id 16
     name head
     direction 0.0262167 0.9967 -0.0768276  
     length 1.89541  
     axis 0 0 0   XYZ
    dof rx ry rz
    limits (-20.0 45.0)
           (-30.0 30.0)
           (-30.0 30.0)
  end
  begin
     id 17 
     name lclavicle
     direction 0.946135 0.322134 -0.0325326  
     length 3.949  
     axis 0 0 0   XYZ
    dof ry rz
    limits (-20.0 10.0)
           (0.0 20.0)
  end
  begin
     id 18 
     name lhumerus
     direction 1 -4.48964e-011 1.94005e-028   
     length 5.10995   
     axis 180 -30 -90   XYZ
    dof rx ry rz
    limits (-60.0 90.0)
           (-90.0 90.0)
           (-90.0 90.0)
  end
  begin
     id 19
     name lradius
     direction 1 -4.48976e-011 2.87852e-027   
     length 3.21207   
     axis 180 -30 -90   XYZ
    dof rx
    limits (-10.0 170.0)
  end
  begin
     id 20
     name lwrist
     direction 1 -4.48963e-011 1.9975e-027   
     length 1.60604   
     axis 2.96054e-016 90 90   XYZ
    dof ry
    limits (-180.0 0.0)
 end
  begin
     id 21 
     name lhand
     direction 1 -4.48919e-011 4.00227e-027   
     length 0.63349   
     axis -2.5488e-015 90 90   XYZ
    dof rx rz
    limits (-90.0 90.0)
           (-45.0 45.0)
  end
  begin
     id 22 
     name lfingers
     direction 1 -4.49037e-011 7.9652e-027   
     length 0.510736   
     axis -5.0975e-015 90 90   XYZ
    dof rx
    limits (0.0 90.0)
  end
  begin
     id 23
     name lthumb
     direction 0.707107 -6.34922e-011 0.707107   
     length 0.733318   
     axis -90 45 -4.48553e-014   XYZ
    dof rx rz
    limits (-45.0 45.0)
           (-45.0 45.0)
  end
  begin
     id 24 
     name rclavicle
     direction -0.940085 0.328911 -0.0897654   
     length 3.93848  
     axis 0 0 0   XYZ 
    dof ry rz
    limits (-10.0 20.0)
           (-20.0 0.0)
  end
  begin
     id 25 
     name rhumerus
     direction -1 -4.48958e-011 3.02044e-027  
     length 5.25109   
     axis 180 30 90   XYZ
    dof rx ry rz
    limits (-90.0 60.0)
           (-90.0 90.0)
           (-90.0 90.0)
  end
  begin
     id 26 
     name rradius
     direction -1 -4.4897e-011 9.78352e-028   
     length 3.28364   
     axis 180 30 90   XYZ
    dof rx
    limits (-10.0 170.0)
  end
  begin
     id 27 
     name rwrist
     direction -1 -4.48943e-011 1.99918e-027   
     length 1.64182   
     axis 2.96054e-016 -90 -90   XYZ
    dof ry
    limits (-180.0 0.0)
  end
  begin
     id 28
     name rhand
     direction -1 -4.49024e-011 3.98478e-027   
     length 0.599745   
     axis -2.5488e-015 -90 -90   XYZ
    dof rx rz
    limits (-90.0 90.0)
           (-45.0 45.0)
  end
  begin
     id 29
     name rfingers
     direction -1 -4.48914e-011 8.00621e-027   
     length 0.48353   
     axis -5.0975e-015 -90 -90   XYZ
    dof rx
    limits (0.0 90.0)
  end
  begin
     id 30
     name rthumb
     direction -0.707107 -6.34992e-011 0.707107   
     length 0.694255   
     axis -90 -45 4.48553e-014   XYZ
    dof rx rz
    limits (-45.0 45.0)
           (-45.0 45.0)
  end
:hierarchy
  begin
    root lhipjoint rhipjoint lowerback
    lhipjoint lfemur
    lfemur ltibia
    ltibia lfoot
    lfoot ltoes
    rhipjoint rfemur
    rfemur rtibia
    rtibia rfoot
    rfoot rtoes
    lowerback upperback
    upperback thorax
    thorax lowerneck lclavicle rclavicle
    lowerneck upperneck
    upperneck head
    lclavicle lhumerus
    lhumerus lradius
    lradius lwrist
    lwrist lhand lthumb
    lhand lfingers
    rclavicle rhumerus
    rhumerus rradius
    rradius rwrist
    rwrist rhand rthumb
    rhand rfingers
  end

#!OML:ASF E:\CV Data\Top Level 1\Subject 1\Session 1\player.ASF
:FULLY-SPECIFIED
:DEGREES
247
root 3.29166 17.7183 -27.3399 16.6466 -8.90507 -1.21661
lowerback 14.7743 -1.08902 9.91081
upperback 4.28619 0.313127 7.45776
thorax -3.69645 0.0881293 2.28364
lowerneck -15.7104 -8.2081 -12.0475
upperneck 29.057 -9.53869 3.81896
head 13.181 -5.00985 1.94963
rclavicle -1.90833e-014 4.45278e-014
rhumerus -14.6868 -3.1881 -77.9507
rradius 67.0319
rwrist 7.77197
rhand -33.9719 12.2103
rfingers 7.12502
rthumb -7.1524 -17.6488
lclavicle -1.90833e-014 4.45278e-014
lhumerus -28.2129 -11.2928 95.3836
lradius 42.9958
lwrist -12.3349
lhand -2.55864 5.93356
lfingers 7.12502
lthumb 23.1375 34.5641
rfemur -30.3775 0.995687 23.6606
rtibia 36.5724
rfoot -19.095 -16.1845
rtoes 2.59632
lfemur -28.2799 9.573 -16.417
ltibia 29.5072
lfoot -6.92632 16.182
ltoes -3.38551
248
root 3.28143 17.7123 -27.3315 16.6041 -8.40897 -1.08922
lowerback 14.921 -1.18576 10.0289
upperback 4.33391 0.229226 7.59403
thorax -3.72658 0.0466572 2.3831
lowerneck -15.8242 -8.3004 -12.0115
upperneck 28.8556 -9.64305 3.77943
head 13.1263 -5.05103 1.90599
rclavicle 1.59028e-015 -3.81667e-014
rhumerus -15.8837 -2.91697 -77.8539
rradius 69.9489
rwrist 7.49828
rhand -34.5408 12.3189
rfingers 7.12502
rthumb -7.7016 -17.5209
lclavicle 1.59028e-015 -3.81667e-014
lhumerus -28.2839 -11.5693 95.303
lradius 43.4859
lwrist -11.7855
lhand -2.48276 5.97709
lfingers 7.12502
lthumb 23.2103 34.5985
rfemur -30.4468 0.775107 23.6467
rtibia 36.8611
rfoot -19.2131 -16.5382
rtoes 2.48636
lfemur -28.524 9.59256 -16.5233
ltibia 29.7943
lfoot -6.89923 15.7204
ltoes -3.75106
249
root 3.27089 17.7067 -27.3245 16.5663 -7.89827 -0.958621
lowerback 15.0762 -1.28525 10.1466
upperback 4.38196 0.143582 7.7263
thorax -3.76072 0.00434354 2.47967
lowerneck -15.8471 -8.38357 -12.0017
upperneck 28.5574 -9.75168 3.79693
head 13.018 -5.09079 1.89176
rclavicle -1.43125e-014 2.8625e-014
rhumerus -17.1237 -2.71727 -77.8225
rradius 72.834
rwrist 7.30072
rhand -35.2882 12.76
rfingers 7.12502
rthumb -8.42291 -17.0521
lclavicle -1.43125e-014 2.8625e-014
lhumerus -28.3214 -11.7952 95.2
lradius 43.9606
lwrist -11.178
lhand -2.44007 6.07639
lfingers 7.12502
lthumb 23.2513 34.6926
rfemur -30.5297 0.552118 23.6345
rtibia 37.1648
rfoot -19.3325 -16.9024
rtoes 2.40816
lfemur -28.7892 9.61006 -16.6338
ltibia 30.096
lfoot -6.86332 15.2455
ltoes -4.09188
250
root 3.26002 17.7014 -27.3187 16.529 -7.38474 -0.825986
lowerback 15.2413 -1.3802 10.2683
upperback 4.44016 0.0649782 7.84738
thorax -3.78883 -0.0340805 2.56136
lowerneck -15.8654 -8.47248 -11.9886
upperneck 28.2279 -9.87912 3.84937
head 12.9001 -5.13407 1.88756
rclavicle 3.18055e-015 9.06458e-014
rhumerus -18.3721 -2.68708 -77.8522
rradius 75.6403
rwrist 7.44707
rhand -36.2819 13.4892
rfingers 7.12502
rthumb -9.38181 -16.282
lclavicle 3.18055e-015 9.06458e-014
lhumerus -28.3088 -11.9896 95.068
lradius 44.4196
lwrist -10.543
lhand -2.45162 6.21937
lfingers 7.12502
lthumb 23.2402 34.837
rfemur -30.6216 0.33872 23.6215
rtibia 37.482
rfoot -19.4503 -17.277
rtoes 2.36592
lfemur -29.0647 9.62887 -16.7467
ltibia 30.4133
lfoot -6.83686 14.762
ltoes -4.36172
251
root 3.24946 17.6965 -27.3141 16.493 -6.87505 -0.688666
lowerback 15.4147 -1.47209 10.3994
upperback 4.50816 -0.0080882 7.95394
thorax -3.81031 -0.0693403 2.62171
lowerneck -15.8828 -8.56872 -11.9764
upperneck 27.8772 -10.0259 3.93595
head 12.778 -5.18177 1.89335
rclavicle -1.11319e-014 6.36111e-015
rhumerus -19.6136 -2.88094 -77.9292
rradius 78.3397
rwrist 8.14286
rhand -37.5588 14.3991
rfingers 7.12502
rthumb -10.6137 -15.3129
lclavicle -1.11319e-014 6.36111e-015
lhumerus -28.2471 -12.1461 94.9066
lradius 44.8604
lwrist -9.90302
lhand -2.52962 6.39791
lfingers 7.12502
lthumb 23.1653 35.025
rfemur -30.7225 0.132382 23.6008
rtibia 37.8101
rfoot -19.565 -17.6476
rtoes 2.34582
lfemur -29.3479 9.64141 -16.8652
ltibia 30.7458
lfoot -6.82775 14.279
ltoes -4.5062
252
root 3.23928 17.6922 -27.3104 16.4516 -6.38492 -0.55232
lowerback 15.6118 -1.56476 10.5208
upperback 4.581 -0.0796531 8.06141
thorax -3.8392 -0.103965 2.68925
lowerneck -15.8896 -8.66112 -11.9911
upperneck 27.5126 -10.1677 4.04979
head 12.6523 -5.22729 1.91508
rclavicle 3.18055e-015 1.27222e-013
rhumerus -20.845 -3.27274 -78.0203
rradius 80.9301
rwrist 9.45133
rhand -39.0614 15.2439
rfingers 7.12502
rthumb -12.0628 -14.3884
lclavicle 3.18055e-015 1.27222e-013
lhumerus -28.1577 -12.2152 94.7341
lradius 45.2884
lwrist -9.26945
lhand -2.68449 6.59091
lfingers 7.12502
lthumb 23.0167 35.2366
rfemur -30.8215 -0.0531242 23.5735
rtibia 38.1432
rfoot -19.6747 -18.009
rtoes 2.3415
lfemur -29.6262 9.64822 -16.982
ltibia 31.0919
lfoot -6.83336 13.8123
ltoes -4.55117
253
root 3.22961 17.6883 -27.3074 16.4082 -5.9343 -0.422896
lowerback 15.8272 -1.65059 10.6419
upperback 4.6664 -0.140838 8.16044
thorax -3.86376 -0.133189 2.74669
lowerneck -15.9082 -8.75222 -12.0127
upperneck 27.1433 -10.3084 4.18149
head 12.5297 -5.27102 1.94432
rclavicle 2.8625e-014 3.33958e-014
rhumerus -22.0473 -3.84562 -78.1228
rradius 83.4291
rwrist 11.2592
rhand -40.6676 15.7533
rfingers 7.12502
rthumb -13.6112 -13.7817
lclavicle 2.8625e-014 3.33958e-014
lhumerus -28.0345 -12.2176 94.5423
lradius 45.7122
lwrist -8.62811
lhand -2.92315 6.80051
lfingers 7.12502
lthumb 22.7877 35.4745
rfemur -30.9194 -0.207551 23.5414
rtibia 38.4744
rfoot -19.7707 -18.3545
rtoes 2.32655
lfemur -29.8982 9.66434 -17.0958
ltibia 31.4483
lfoot -6.84596 13.3681
ltoes -4.50085
254
root 3.22075 17.6848 -27.305 16.3574 -5.52788 -0.304007
lowerback 16.0747 -1.72834 10.7633
upperback 4.76165 -0.186994 8.25512
thorax -3.89418 -0.155141 2.79761
lowerneck -15.9205 -8.83942 -12.0476
upperneck 26.7584 -10.4433 4.32791
head 12.402 -5.3122 1.98239
rclavicle -1.90833e-014 -2.06736e-014
rhumerus -23.2243 -4.50332 -78.2263
rradius 85.8754
rwrist 13.279
rhand -42.1669 15.7167
rfingers 7.12502
rthumb -15.056 -13.7158
lclavicle -1.90833e-014 -2.06736e-014
lhumerus -27.8887 -12.1579 94.3454
lradius 46.1307
lwrist -7.97533
lhand -3.29239 6.99225
lfingers 7.12502
lthumb 22.4333 35.7095
rfemur -31.0079 -0.333295 23.5071
rtibia 38.7974
rfoot -19.8491 -18.6781
rtoes 2.29494
lfemur -30.16 9.69287 -17.2041
ltibia 31.8135
lfoot -6.85307 12.9532
ltoes -4.3942
255
root 3.21301 17.6819 -27.3033 16.299 -5.16393 -0.190388
lowerback 16.3486 -1.80154 10.8881
upperback 4.87071 -0.223809 8.3417
thorax -3.92315 -0.172302 2.83699
lowerneck -15.9446 -8.92034 -12.0857
upperneck 26.3695 -10.5662 4.47637
head 12.2755 -5.34839 2.02314
rclavicle 1.59028e-015 -6.99722e-014
rhumerus -24.3473 -5.131 -78.3485
rradius 88.2747
rwrist 15.155
rhand -43.3905 15.2032
rfingers 7.12502
rthumb -16.2344 -14.1371
lclavicle 1.59028e-015 -6.99722e-014
lhumerus -27.7176 -12.0417 94.1424
lradius 46.5495
lwrist -7.30545
lhand -3.80904 7.15473
lfingers 7.12502
lthumb 21.9373 35.9309
rfemur -31.0849 -0.440554 23.4655
rtibia 39.1059
rfoot -19.9058 -18.977
rtoes 2.22181
lfemur -30.4123 9.73613 -17.3152
ltibia 32.1876
lfoot -6.85921 12.5635
ltoes -4.17554
